<?xml version="1.0" standalone="no"?>
<!DOCTYPE svg PUBLIC "-//W3C//DTD SVG 20010904//EN"
 "http://www.w3.org/TR/2001/REC-SVG-20010904/DTD/svg10.dtd">
<svg version="1.0" xmlns="http://www.w3.org/2000/svg"
 width="340.000000pt" height="147.000000pt" viewBox="0 0 340.000000 147.000000"
 preserveAspectRatio="xMidYMid meet">

<g transform="translate(0.000000,147.000000) scale(0.100000,-0.100000)"
fill="#000000" stroke="none">
<path d="M2042 1048 c-7 -7 -12 -22 -12 -33 0 -20 -37 -65 -53 -65 -4 0 -7 9
-7 19 0 11 -7 27 -16 35 -13 14 -56 16 -315 16 -286 0 -300 -1 -319 -20 -19
-19 -20 -33 -20 -238 l0 -219 -25 -11 c-25 -12 -31 -34 -26 -92 5 -51 -1 -50
387 -50 409 0 394 -3 394 75 0 45 -19 75 -46 75 -12 0 -14 30 -14 178 l0 178
44 43 c24 24 49 40 55 37 11 -7 51 27 51 43 0 16 -30 41 -49 41 -9 0 -22 -5
-29 -12z m46 -29 c-2 -6 -8 -10 -13 -10 -5 0 -11 4 -13 10 -2 6 4 11 13 11 9
0 15 -5 13 -11z m-148 -73 c0 -30 -5 -46 -15 -50 -12 -4 -15 3 -15 29 l0 35
-272 -2 -273 -3 -3 -192 -2 -193 275 0 275 0 0 139 c0 111 3 141 15 151 13 11
15 -7 15 -154 l0 -166 -305 0 -305 0 0 218 c0 120 3 222 7 225 3 4 141 7 305
7 l298 0 0 -44z m-54 -52 c-3 -27 -16 -49 -54 -86 l-50 -50 -52 41 c-58 46
-73 49 -92 22 -7 -10 -30 -37 -51 -60 -42 -47 -66 -48 -86 -5 -8 19 -17 25
-38 22 -62 -7 -54 -72 9 -74 18 -1 44 -7 56 -13 21 -11 27 -7 79 48 31 34 60
61 65 61 5 0 30 -16 55 -35 25 -19 51 -35 57 -35 7 0 30 18 51 40 21 22 42 40
45 40 8 0 11 -154 4 -190 l-4 -25 -245 0 -245 0 0 168 0 167 250 0 250 0 -4
-36z m-406 -155 c0 -5 -7 -9 -15 -9 -15 0 -20 12 -9 23 8 8 24 -1 24 -14z m60
-247 c0 -33 22 -42 96 -42 74 0 104 13 104 46 0 11 24 14 130 14 l130 0 0 -45
0 -45 -362 2 -363 3 -3 28 c-7 56 -4 57 138 57 119 0 130 -2 130 -18z m170 3
c0 -12 -14 -15 -69 -15 -65 0 -90 8 -74 24 3 3 37 6 75 6 54 0 68 -3 68 -15z"/>
<path d="M1652 730 c0 -19 2 -27 5 -17 2 9 2 25 0 35 -3 9 -5 1 -5 -18z"/>
<path d="M1660 675 c-7 -9 -8 -15 -2 -15 5 0 12 7 16 15 3 8 4 15 2 15 -2 0
-9 -7 -16 -15z"/>
<path d="M1770 670 c0 -5 5 -10 11 -10 5 0 7 5 4 10 -3 6 -8 10 -11 10 -2 0
-4 -4 -4 -10z"/>
<path d="M1460 635 c-7 -9 -8 -15 -2 -15 5 0 12 7 16 15 3 8 4 15 2 15 -2 0
-9 -7 -16 -15z"/>
<path d="M1550 634 c0 -8 5 -12 10 -9 6 4 8 11 5 16 -9 14 -15 11 -15 -7z"/>
<path d="M1665 641 c-3 -5 -2 -12 3 -15 5 -3 9 1 9 9 0 17 -3 19 -12 6z"/>
<path d="M1780 635 c-7 -9 -8 -15 -2 -15 5 0 12 7 16 15 3 8 4 15 2 15 -2 0
-9 -7 -16 -15z"/>
</g>
</svg>
