<?xml version="1.0" standalone="no"?>
<!DOCTYPE svg PUBLIC "-//W3C//DTD SVG 20010904//EN"
 "http://www.w3.org/TR/2001/REC-SVG-20010904/DTD/svg10.dtd">
<svg version="1.0" xmlns="http://www.w3.org/2000/svg"
 width="340.000000pt" height="151.000000pt" viewBox="0 0 340.000000 151.000000"
 preserveAspectRatio="xMidYMid meet">

<g transform="translate(0.000000,151.000000) scale(0.100000,-0.100000)"
fill="#000000" stroke="none">
<path d="M1554 1170 c-69 -24 -121 -59 -171 -113 -151 -164 -146 -415 10 -571
51 -52 139 -106 171 -106 11 0 30 47 67 162 41 133 56 168 80 188 16 14 29 34
29 46 0 27 -30 54 -61 54 -17 0 -46 21 -94 70 -46 47 -73 66 -79 60 -7 -7 13
-34 61 -83 95 -97 98 -114 43 -291 -23 -72 -44 -139 -46 -149 -7 -21 -30 -16
-84 18 -156 99 -218 321 -136 489 118 240 446 288 624 91 133 -148 137 -347 9
-509 -27 -34 -109 -96 -128 -96 -3 0 -9 14 -12 30 -4 17 -12 30 -19 30 -20 -1
-121 -97 -116 -111 5 -15 137 -61 150 -53 6 4 8 19 4 34 -5 25 1 32 57 68 72
46 118 100 153 177 49 105 51 232 5 337 -45 105 -151 199 -261 232 -71 21
-191 20 -256 -4z m147 -395 c-1 -15 -24 -12 -29 3 -3 9 2 13 12 10 10 -1 17
-7 17 -13z m118 -392 c1 -16 -9 -16 -46 -2 l-28 11 30 24 30 24 7 -23 c3 -12
6 -28 7 -34z"/>
<path d="M1380 775 c-11 -13 -10 -14 4 -9 9 3 16 10 16 15 0 13 -6 11 -20 -6z"/>
<path d="M2020 782 c0 -6 -8 -13 -17 -15 -16 -4 -16 -5 -1 -6 18 -1 34 16 24
26 -3 4 -6 1 -6 -5z"/>
</g>
</svg>
