<?xml version="1.0" standalone="no"?>
<!DOCTYPE svg PUBLIC "-//W3C//DTD SVG 20010904//EN"
 "http://www.w3.org/TR/2001/REC-SVG-20010904/DTD/svg10.dtd">
<svg version="1.0" xmlns="http://www.w3.org/2000/svg"
 width="337.000000pt" height="148.000000pt" viewBox="0 0 337.000000 148.000000"
 preserveAspectRatio="xMidYMid meet">

<g transform="translate(0.000000,148.000000) scale(0.100000,-0.100000)"
fill="#000000" stroke="none">
<path d="M1450 1145 c-18 -20 -21 -27 -11 -39 10 -12 8 -28 -8 -81 -25 -80
-27 -181 -6 -253 9 -28 36 -81 60 -118 44 -66 45 -68 45 -149 l0 -83 -106 -4
c-97 -3 -107 -5 -125 -27 -10 -13 -19 -39 -19 -57 l0 -34 347 2 c328 3 348 4
351 21 6 29 -17 73 -44 86 -14 6 -65 11 -114 11 l-90 0 0 34 0 33 78 0 c52 0
96 7 136 21 46 15 63 18 77 9 15 -9 23 -7 44 13 14 13 25 27 25 32 0 5 -52 61
-115 126 l-114 119 11 61 c11 57 14 62 38 62 34 0 50 17 50 55 0 38 -16 55
-51 55 -34 0 -59 -24 -59 -55 0 -21 -6 -23 -66 -30 l-67 -7 -111 111 c-61 61
-116 111 -122 111 -6 0 -21 -11 -34 -25z m598 -593 c-12 -14 -4 -22 -481 464
-64 65 -97 106 -92 114 5 8 104 -85 296 -276 234 -234 286 -291 277 -302z
m-458 401 c57 -60 169 -174 249 -255 l144 -147 -29 -12 c-48 -18 -150 -32
-188 -25 -34 7 -36 9 -36 46 0 51 -15 83 -50 103 -39 23 -71 21 -112 -7 l-35
-23 -31 46 c-45 67 -64 126 -65 206 0 67 26 175 42 175 4 0 54 -48 111 -107z
m340 33 c0 -25 -15 -37 -37 -28 -14 4 -18 34 -6 45 3 4 15 7 25 7 12 0 18 -7
18 -24z m-120 -81 c-22 -23 -25 -24 -41 -9 -25 22 -15 34 28 34 l36 0 -23 -25z
m32 -44 c-7 -30 -9 -32 -21 -17 -12 14 -11 19 4 36 23 25 25 23 17 -19z m-164
-231 c18 -17 22 -32 22 -85 l0 -65 -76 0 -76 0 5 67 c4 54 10 71 27 85 29 24
71 23 98 -2z m22 -195 c0 -12 -15 -15 -75 -15 -69 0 -86 6 -68 23 3 4 37 7 75
7 54 0 68 -3 68 -15z m234 -61 c9 -8 16 -22 16 -30 0 -12 -49 -14 -320 -14
-311 0 -320 1 -320 20 0 10 8 24 18 29 10 6 128 11 304 11 247 0 289 -2 302
-16z"/>
<path d="M1639 600 c21 -18 23 -23 10 -31 -12 -9 -12 -10 1 -6 23 6 18 28 -10
44 l-25 15 24 -22z"/>
<path d="M1590 571 c0 -5 7 -12 16 -15 14 -5 15 -4 4 9 -14 17 -20 19 -20 6z"/>
</g>
</svg>
