<?xml version="1.0" standalone="no"?>
<!DOCTYPE svg PUBLIC "-//W3C//DTD SVG 20010904//EN"
 "http://www.w3.org/TR/2001/REC-SVG-20010904/DTD/svg10.dtd">
<svg version="1.0" xmlns="http://www.w3.org/2000/svg"
 width="336.000000pt" height="149.000000pt" viewBox="0 0 336.000000 149.000000"
 preserveAspectRatio="xMidYMid meet">

<g transform="translate(0.000000,149.000000) scale(0.100000,-0.100000)"
fill="#000000" stroke="none">
<path d="M1598 1100 c-100 -30 -158 -141 -125 -237 l15 -43 -37 0 c-53 -1
-195 -78 -199 -108 -4 -28 14 -52 39 -52 10 0 48 14 83 32 36 18 68 29 71 26
4 -3 -37 -49 -90 -101 -82 -80 -96 -99 -93 -122 2 -18 11 -31 25 -36 18 -6 32
0 75 36 40 33 56 41 66 33 10 -9 4 -21 -32 -57 -51 -52 -61 -93 -26 -111 30
-16 44 -5 188 146 l131 136 50 -7 c47 -6 53 -4 111 35 86 58 101 100 47 134
-13 8 -29 2 -75 -31 -38 -27 -63 -38 -72 -33 -10 6 -4 16 22 39 109 95 85 251
-47 312 -42 20 -83 23 -127 9z m69 -37 c-3 -10 -10 -39 -17 -64 -9 -32 -22
-50 -42 -62 -31 -18 -36 -47 -12 -71 18 -18 55 -21 71 -5 8 8 26 4 63 -12 l53
-23 -31 -27 c-62 -55 -150 -51 -212 11 -60 60 -64 144 -10 212 38 49 149 82
137 41z m83 -19 c41 -35 60 -74 60 -126 0 -69 -8 -73 -73 -42 -30 15 -60 37
-65 48 -8 19 -1 61 23 134 6 18 20 15 55 -14z m-100 -144 c0 -13 -7 -20 -20
-20 -19 0 -27 20 -13 33 13 14 33 6 33 -13z m-119 -126 c24 -22 87 -43 128
-44 58 0 101 -21 101 -47 0 -22 -3 -23 -42 -17 l-42 7 -68 -74 -67 -74 -56 55
c-30 30 -55 58 -55 63 0 5 16 23 35 40 51 45 45 64 -17 58 -13 -2 -18 5 -18
23 0 24 4 26 42 26 24 0 49 -7 59 -16z m-147 -41 c-24 -18 -34 -16 -34 5 0 25
43 46 49 24 2 -9 -5 -22 -15 -29z m514 25 c4 -20 -29 -33 -39 -16 -9 15 9 40
25 35 6 -2 12 -11 14 -19z m-571 -52 c-8 -20 -47 -21 -47 -1 0 18 32 37 44 25
5 -5 6 -16 3 -24z m501 -18 c-29 -23 -35 -22 -41 2 -3 13 2 25 16 35 20 14 23
14 35 -2 11 -15 9 -20 -10 -35z m-365 -126 l57 -58 -35 -34 c-25 -24 -38 -31
-46 -23 -7 7 -3 19 16 39 l26 28 -30 30 -31 30 -29 -22 c-26 -19 -31 -19 -42
-6 -10 12 -7 20 16 44 16 17 31 30 35 30 3 0 31 -26 63 -58z m-130 -39 c8 -7
-21 -43 -35 -43 -10 0 -11 34 -1 43 8 9 28 9 36 0z m87 -107 c0 -18 -27 -39
-40 -31 -7 4 -7 12 0 26 12 22 40 26 40 5z"/>
<path d="M1710 1024 c0 -9 55 -74 63 -74 16 0 6 38 -16 58 -22 20 -47 29 -47
16z"/>
<path d="M1760 905 c0 -8 7 -15 15 -15 8 0 15 7 15 15 0 8 -7 15 -15 15 -8 0
-15 -7 -15 -15z"/>
<path d="M1512 697 c-18 -18 -32 -38 -32 -43 0 -13 53 -64 66 -64 14 0 74 54
74 66 0 10 -62 74 -71 74 -3 0 -19 -15 -37 -33z m62 -30 c8 -13 7 -21 -6 -34
-16 -16 -19 -16 -38 2 -19 17 -19 19 -3 37 19 21 32 20 47 -5z"/>
<path d="M2005 1099 c-11 -16 -1 -19 13 -3 7 8 8 14 3 14 -5 0 -13 -5 -16 -11z"/>
<path d="M1931 1054 c-1 -6 7 -18 17 -25 9 -7 14 -9 10 -5 -4 5 -2 16 5 25 10
14 10 14 -5 3 -13 -10 -17 -10 -21 0 -3 8 -6 8 -6 2z"/>
<path d="M1980 1049 c0 -5 5 -7 10 -4 6 3 10 8 10 11 0 2 -4 4 -10 4 -5 0 -10
-5 -10 -11z"/>
<path d="M1969 1018 c-5 -19 -8 -50 -4 -46 7 7 15 48 9 48 -2 0 -4 -1 -5 -2z"/>
<path d="M2061 993 c7 -12 15 -20 18 -17 3 2 -3 12 -13 22 -17 16 -18 16 -5
-5z"/>
<path d="M1390 995 c0 -12 40 -48 47 -42 3 4 0 7 -8 7 -11 0 -11 2 1 10 13 8
12 10 -2 10 -10 0 -18 5 -18 10 0 6 -4 10 -10 10 -5 0 -10 -2 -10 -5z"/>
<path d="M1356 968 c3 -4 9 -8 15 -8 5 0 9 4 9 8 0 5 -7 9 -15 9 -8 0 -12 -4
-9 -9z"/>
<path d="M2006 968 c3 -5 10 -6 15 -3 13 9 11 12 -6 12 -8 0 -12 -4 -9 -9z"/>
<path d="M2040 960 c-9 -6 -10 -10 -3 -10 6 0 15 5 18 10 8 12 4 12 -15 0z"/>
<path d="M1970 950 c-9 -6 -10 -10 -3 -10 6 0 15 5 18 10 8 12 4 12 -15 0z"/>
<path d="M2065 950 c-3 -5 -1 -10 4 -10 6 0 11 5 11 10 0 6 -2 10 -4 10 -3 0
-8 -4 -11 -10z"/>
<path d="M1384 938 c-4 -6 -3 -8 4 -4 5 3 13 0 15 -6 3 -8 6 -6 6 5 1 19 -14
23 -25 5z"/>
<path d="M1927 592 c-10 -10 -17 -23 -17 -28 0 -5 5 -1 11 9 6 9 14 15 20 12
5 -4 9 1 9 9 0 20 -3 20 -23 -2z"/>
<path d="M1965 581 c3 -6 -4 -15 -15 -21 -21 -11 -19 -30 3 -30 9 0 8 3 -1 8
-9 6 -6 12 12 22 24 12 27 30 5 30 -6 0 -8 -4 -4 -9z"/>
<path d="M1690 466 c0 -9 5 -16 10 -16 6 0 10 4 10 9 0 6 -4 13 -10 16 -5 3
-10 -1 -10 -9z"/>
<path d="M1661 434 c0 -11 3 -14 6 -6 3 7 2 16 -1 19 -3 4 -6 -2 -5 -13z"/>
<path d="M1805 419 c-4 -6 -4 -13 -1 -16 3 -4 6 -1 6 6 0 7 5 9 12 5 7 -4 8
-3 4 4 -9 15 -13 15 -21 1z"/>
<path d="M1870 414 c0 -8 5 -12 10 -9 6 4 8 11 5 16 -9 14 -15 11 -15 -7z"/>
<path d="M1836 391 c-4 -5 -2 -12 3 -15 5 -4 12 -2 15 3 4 5 2 12 -3 15 -5 4
-12 2 -15 -3z"/>
</g>
</svg>
